<?xml version="1.0" encoding="UTF-8" standalone="no"?>
<!DOCTYPE svg PUBLIC "-//W3C//DTD SVG 1.1//EN" "http://www.w3.org/Graphics/SVG/1.1/DTD/svg11.dtd">
<svg version="1.1" xmlns="http://www.w3.org/2000/svg" xmlns:xlink="http://www.w3.org/1999/xlink" preserveAspectRatio="xMidYMid meet" viewBox="0 0 640 640" width="640" height="640"><defs><path d="M500 324.2C500 434.58 410.39 524.2 300 524.2C189.62 524.2 100 434.58 100 324.2C100 213.82 189.62 124.2 300 124.2C410.39 124.2 500 213.82 500 324.2Z" id="c5Fy64A9J"></path><path d="M203.38 202.33L396.62 202.33L396.62 446.07L203.38 446.07L203.38 202.33Z" id="abIFWE7DY1"></path><path d="M248.03 223.94L351.97 223.94L351.97 251.02L248.03 251.02L248.03 223.94Z" id="e45PzQJtki"></path><path d="M220.22 263.48L316.84 263.48L316.84 317.14L220.22 317.14L220.22 263.48Z" id="a25Xhn0eLJ"></path><path d="M327.82 263.48L384.18 263.48L384.18 267.14L327.82 267.14L327.82 263.48Z" id="a49o7Wj8Hg"></path><path d="M327.82 273.48L384.18 273.48L384.18 277.14L327.82 277.14L327.82 273.48Z" id="b1saxDr1Cr"></path><path d="M327.82 283.48L384.18 283.48L384.18 287.14L327.82 287.14L327.82 283.48Z" id="a2VwWzPOU"></path><path d="M327.82 293.48L384.18 293.48L384.18 297.14L327.82 297.14L327.82 293.48Z" id="c3Q8apg0V"></path><path d="M327.82 303.48L384.18 303.48L384.18 307.14L327.82 307.14L327.82 303.48Z" id="aIXocs7QQ"></path><path d="M327.82 313.48L384.18 313.48L384.18 317.14L327.82 317.14L327.82 313.48Z" id="c8EYZGO4hs"></path><path d="M219.85 323.48L384.18 323.48L384.18 327.14L219.85 327.14L219.85 323.48Z" id="aiXV5OipR"></path><path d="M220.22 333.48L384.55 333.48L384.55 337.14L220.22 337.14L220.22 333.48Z" id="a2h25nNMV5"></path><path d="M220.22 343.48L384.55 343.48L384.55 347.14L220.22 347.14L220.22 343.48Z" id="c2eTMjDJSW"></path><path d="M220.22 353.48L384.55 353.48L384.55 357.14L220.22 357.14L220.22 353.48Z" id="c4M1b8AqHw"></path><path d="M220.22 363L311.35 363L311.35 368.85L220.22 368.85L220.22 363Z" id="c2zwOz4dlv"></path><path d="M220.22 373.48L384.55 373.48L384.55 377.14L220.22 377.14L220.22 373.48Z" id="a15w4H8qmC"></path><path d="M220.22 383.48L384.55 383.48L384.55 387.14L220.22 387.14L220.22 383.48Z" id="ievb1Q84"></path><path d="M220.22 393.48L384.55 393.48L384.55 397.14L220.22 397.14L220.22 393.48Z" id="c9rDV4v1m"></path></defs><g><g><g><use xlink:href="#c5Fy64A9J" opacity="1" fill="#3be5e9" fill-opacity="1"></use><g><use xlink:href="#c5Fy64A9J" opacity="1" fill-opacity="0" stroke="#3ed8db" stroke-width="4" stroke-opacity="1"></use></g></g><g><use xlink:href="#abIFWE7DY1" opacity="1" fill="#dbeaea" fill-opacity="1"></use><g><use xlink:href="#abIFWE7DY1" opacity="1" fill-opacity="0" stroke="#ffffff" stroke-width="1" stroke-opacity="1"></use></g></g><g><use xlink:href="#e45PzQJtki" opacity="1" fill="#bf1d1d" fill-opacity="1"></use></g><g><use xlink:href="#a25Xhn0eLJ" opacity="1" fill="#a79da8" fill-opacity="1"></use></g><g><use xlink:href="#a49o7Wj8Hg" opacity="1" fill="#b8aeb9" fill-opacity="1"></use></g><g><use xlink:href="#b1saxDr1Cr" opacity="1" fill="#b8aeb9" fill-opacity="1"></use></g><g><use xlink:href="#a2VwWzPOU" opacity="1" fill="#b8aeb9" fill-opacity="1"></use></g><g><use xlink:href="#c3Q8apg0V" opacity="1" fill="#b8aeb9" fill-opacity="1"></use></g><g><use xlink:href="#aIXocs7QQ" opacity="1" fill="#b8aeb9" fill-opacity="1"></use></g><g><use xlink:href="#c8EYZGO4hs" opacity="1" fill="#b8aeb9" fill-opacity="1"></use></g><g><use xlink:href="#aiXV5OipR" opacity="1" fill="#b8aeb9" fill-opacity="1"></use></g><g><use xlink:href="#a2h25nNMV5" opacity="1" fill="#b8aeb9" fill-opacity="1"></use></g><g><use xlink:href="#c2eTMjDJSW" opacity="1" fill="#b8aeb9" fill-opacity="1"></use></g><g><use xlink:href="#c4M1b8AqHw" opacity="1" fill="#b8aeb9" fill-opacity="1"></use></g><g><use xlink:href="#c2zwOz4dlv" opacity="1" fill="#b8aeb9" fill-opacity="1"></use></g><g><use xlink:href="#a15w4H8qmC" opacity="1" fill="#b8aeb9" fill-opacity="1"></use></g><g><use xlink:href="#ievb1Q84" opacity="1" fill="#b8aeb9" fill-opacity="1"></use></g><g><use xlink:href="#c9rDV4v1m" opacity="1" fill="#b8aeb9" fill-opacity="1"></use></g></g></g></svg>